<svg class="map__clusters" viewBox="0 0 1440 1080" xmlns="http://www.w3.org/2000/svg" aria-hidden="true">
  <g class="cluster-group" data-cluster="laugavegur">
    <circle cx="685.9" cy="894.8" r="134.5" class="cluster__circle" />
    <path id="laugavegur-r0" d="M 571.4,894.8 a 114.5,114.5 0 1,1 228.9,0 a 114.5,114.5 0 1,1 -228.9,0" fill="none" stroke="none" />
    <g class="cluster__ring cluster__ring--cw" data-huts="lml-hut,hrf,alf" style="transform-origin: 685.9px 894.8px">
      <text class="cluster__ring-text" data-hut="lml-hut"><textPath href="#laugavegur-r0" startOffset="2%">LANDMANNALAUGAR</textPath></text>
      <text class="cluster__ring-text" data-hut="hrf"><textPath href="#laugavegur-r0" startOffset="39%">HRAFNTINNUSKER</textPath></text>
      <text class="cluster__ring-text" data-hut="alf"><textPath href="#laugavegur-r0" startOffset="74%">ÁLFTAVATN</textPath></text>
    </g>
    <path id="laugavegur-r1" d="M 595.4,894.8 a 90.5,90.5 0 1,1 180.9,0 a 90.5,90.5 0 1,1 -180.9,0" fill="none" stroke="none" />
    <g class="cluster__ring cluster__ring--ccw" data-huts="hvg,ems,tmk-hut" style="transform-origin: 685.9px 894.8px">
      <text class="cluster__ring-text" data-hut="hvg"><textPath href="#laugavegur-r1" startOffset="2%">HVANNGIL</textPath></text>
      <text class="cluster__ring-text" data-hut="ems"><textPath href="#laugavegur-r1" startOffset="36%">EMSTRUR</textPath></text>
      <text class="cluster__ring-text" data-hut="tmk-hut"><textPath href="#laugavegur-r1" startOffset="68%">ÞÓRSMÖRK</textPath></text>
    </g>
    <path id="laugavegur-r2" d="M 619.4,894.8 a 66.5,66.5 0 1,1 132.9,0 a 66.5,66.5 0 1,1 -132.9,0" fill="none" stroke="none" />
    <g class="cluster__ring cluster__ring--cw" data-huts="fmv" style="transform-origin: 685.9px 894.8px">
      <text class="cluster__ring-text" data-hut="fmv"><textPath href="#laugavegur-r2" startOffset="2%">FIMMVÖRÐUHÁLS</textPath></text>
    </g>
  </g>
  <g class="cluster-group" data-cluster="kjolur">
    <circle cx="634.5" cy="632.1" r="105.7" class="cluster__circle" />
    <path id="kjolur-r0" d="M 548.7,632.1 a 85.7,85.7 0 1,1 171.5,0 a 85.7,85.7 0 1,1 -171.5,0" fill="none" stroke="none" />
    <g class="cluster__ring cluster__ring--cw" data-huts="hvt,tvb,tjd" style="transform-origin: 634.5px 632.1px">
      <text class="cluster__ring-text" data-hut="hvt"><textPath href="#kjolur-r0" startOffset="2%">HVÍTÁRNES</textPath></text>
      <text class="cluster__ring-text" data-hut="tvb"><textPath href="#kjolur-r0" startOffset="31%">ÞVERBREKKNAMÚLI</textPath></text>
      <text class="cluster__ring-text" data-hut="tjd"><textPath href="#kjolur-r0" startOffset="71%">ÞJÓFADALIR</textPath></text>
    </g>
  </g>
  <g class="cluster-group" data-cluster="langjokull">
    <circle cx="542.3" cy="716.1" r="91.2" class="cluster__circle" />
    <path id="langjokull-r0" d="M 471.2,716.1 a 71.2,71.2 0 1,1 142.3,0 a 71.2,71.2 0 1,1 -142.3,0" fill="none" stroke="none" />
    <g class="cluster__ring cluster__ring--cw" data-huts="hgv,hld" style="transform-origin: 542.3px 716.1px">
      <text class="cluster__ring-text" data-hut="hgv"><textPath href="#langjokull-r0" startOffset="2%">HAGAVATN</textPath></text>
      <text class="cluster__ring-text" data-hut="hld"><textPath href="#langjokull-r0" startOffset="49%">HLÖÐUVELLIR</textPath></text>
    </g>
  </g>
  <g class="cluster-group" data-cluster="hornstrandir">
    <circle cx="347.5" cy="172.4" r="143.5" class="cluster__circle" />
    <path id="hornstrandir-r0" d="M 223.9,172.4 a 123.5,123.5 0 1,1 247.1,0 a 123.5,123.5 0 1,1 -247.1,0" fill="none" stroke="none" />
    <g class="cluster__ring cluster__ring--cw" data-huts="hrn,nfj" style="transform-origin: 347.5px 172.4px">
      <text class="cluster__ring-text" data-hut="hrn"><textPath href="#hornstrandir-r0" startOffset="2%">HORNBJARGSVITI</textPath></text>
      <text class="cluster__ring-text" data-hut="nfj"><textPath href="#hornstrandir-r0" startOffset="53%">NORÐURFJÖRÐUR</textPath></text>
    </g>
  </g>
</svg>